# xmcd
#
# Track frame offsets:
#	150
#	15439
#	31052
#	47212
#	64907
#	82082
#	97080
#	111770
#	129036
#	146032
#	166372
#
# Disc length: 2418 seconds
#
# Revision: 0
# Processed by: cddbd v1.5.2PL0 Copyright (c) Steve Scherf et al.
# Submitted via: EasyCDDAExtractor 11.1.0.1
#
DISCID=8e09700b
DTITLE=Young black and Silver - Daddy Frank
DYEAR=1900
DGENRE=country
TTITLE0=Daddy Frank
TTITLE1=There you have it
TTITLE2=Lonely boy
TTITLE3=If tomorrow never comes
TTITLE4=Feels good don't it
TTITLE5=What a crying shame
TTITLE6=Any man with a heartbeat
TTITLE7=Can't help falling in love with you
TTITLE8=Suspicious mind
TTITLE9=Fast as you
TTITLE10=Good day to be me
EXTD=
EXTT0=
EXTT1=
EXTT2=
EXTT3=
EXTT4=
EXTT5=
EXTT6=
EXTT7=
EXTT8=
EXTT9=
EXTT10=
PLAYORDER=
